HIERARCHY
ROOT root
{
	OFFSET 0.000000 0.000000 0.000000
	CHANNELS 6 Xposition Yposition Zposition Zrotation Yrotation Xrotation
	JOINT lhip
	{
		OFFSET 0.058581 -0.082280 -0.017664
		CHANNELS 3 Zrotation Yrotation Xrotation
		JOINT lknee
		{
			OFFSET 0.043451 -0.386469 0.008037
			CHANNELS 3 Zrotation Yrotation Xrotation
			JOINT lankle
			{
				OFFSET -0.014790 -0.426874 -0.037428
				CHANNELS 3 Zrotation Yrotation Xrotation
				JOINT ltoe
				{
					OFFSET 0.041054 -0.060286 0.122042
					CHANNELS 3 Zrotation Yrotation Xrotation
					End Site
					{
						OFFSET 0.000000 0.000000 0.000000
					}
				}
			}
		}
	}
	JOINT rhip
	{
		OFFSET -0.060310 -0.090513 -0.013543
		CHANNELS 3 Zrotation Yrotation Xrotation
		JOINT rknee
		{
			OFFSET -0.043257 -0.383688 -0.004843
			CHANNELS 3 Zrotation Yrotation Xrotation
			JOINT rankle
			{
				OFFSET 0.019056 -0.420046 -0.034562
				CHANNELS 3 Zrotation Yrotation Xrotation
				JOINT rtoe
				{
					OFFSET -0.034840 -0.062106 0.130323
					CHANNELS 3 Zrotation Yrotation Xrotation
					End Site
					{
						OFFSET 0.000000 0.000000 0.000000
					}
				}
			}
		}
	}
	JOINT lowerback
	{
		OFFSET 0.004439 0.124404 -0.038385
		CHANNELS 3 Zrotation Yrotation Xrotation
		JOINT upperback
		{
			OFFSET 0.004488 0.137956 0.026820
			CHANNELS 3 Zrotation Yrotation Xrotation
			JOINT chest
			{
				OFFSET -0.002265 0.056032 0.002855
				CHANNELS 3 Zrotation Yrotation Xrotation
				JOINT lowerneck
				{
					OFFSET -0.013390 0.211636 -0.033468
					CHANNELS 3 Zrotation Yrotation Xrotation
					JOINT upperneck
					{
						OFFSET 0.010113 0.088937 0.050410
						CHANNELS 3 Zrotation Yrotation Xrotation
						End Site
						{
							OFFSET 0.000000 0.000000 0.000000
						}
					}
				}
				JOINT lclavicle
				{
					OFFSET 0.071702 0.114000 -0.018898
					CHANNELS 3 Zrotation Yrotation Xrotation
					JOINT lshoulder
					{
						OFFSET 0.122921 0.045205 -0.019046
						CHANNELS 3 Zrotation Yrotation Xrotation
						JOINT lelbow
						{
							OFFSET 0.255332 -0.015649 -0.022946
							CHANNELS 3 Zrotation Yrotation Xrotation
							JOINT lwrist
							{
								OFFSET 0.265709 0.012698 -0.007375
								CHANNELS 3 Zrotation Yrotation Xrotation
								End Site
								{
									OFFSET 0.000000 0.000000 0.000000
								}
							}
						}
					}
				}
				JOINT rclavicle
				{
					OFFSET -0.082954 0.112472 -0.023707
					CHANNELS 3 Zrotation Yrotation Xrotation
					JOINT rshoulder
					{
						OFFSET -0.113228 0.046853 -0.008472
						CHANNELS 3 Zrotation Yrotation Xrotation
						JOINT relbow
						{
							OFFSET -0.260127 -0.014369 -0.031269
							CHANNELS 3 Zrotation Yrotation Xrotation
							JOINT rwrist
							{
								OFFSET -0.269108 0.006794 -0.006027
								CHANNELS 3 Zrotation Yrotation Xrotation
								End Site
								{
									OFFSET 0.000000 0.000000 0.000000
								}
							}
						}
					}
				}
			}
		}
	}
}
MOTION
Frames: 14
Frame Time: 0.033333
0.007136 -1.344539 0.993309 -169.318715 0.414494 90.210652 8.627159 1.742609 -3.167965 -6.984676 -0.122267 14.429107 1.914084 10.112692 -18.970113 0.000000 -0.000000 0.000000 -7.004817 -1.326594 -3.427158 5.260810 -0.683900 8.761215 3.705944 1.476611 -10.702463 0.000000 -0.000000 0.000000 2.565721 0.911909 -1.890013 1.835991 -1.046964 7.525151 -2.095925 0.470713 -0.308484 2.658333 1.149284 3.308199 -4.396544 -7.713920 26.730577 -35.806564 -2.103688 4.572772 -51.810334 -9.118760 14.941950 8.929708 -19.231698 6.009536 -5.397269 -12.360769 0.278091 35.919127 5.469353 7.385014 43.943884 10.951159 8.449762 -13.983394 13.622301 -15.157478 7.090781 9.963786 -16.861672 
0.000215 -1.347198 0.992371 -170.424837 0.535305 90.751598 7.871011 2.182653 -2.377829 -6.280163 -0.774556 11.620175 2.764844 11.856479 -16.141151 0.000000 -0.000000 0.000000 -7.210512 -1.081790 -4.218916 5.319016 1.326245 8.277827 2.377527 -0.150123 -9.278953 0.000000 -0.000000 0.000000 2.459547 1.157815 -3.244537 1.673458 -1.757584 11.388695 -1.963928 0.529035 -4.131190 -0.119788 -1.047865 2.900336 -1.315181 -4.347993 27.844884 -36.315017 -1.066909 4.597893 -51.272366 -8.771628 16.282659 6.785695 -19.599019 2.678940 -0.219003 -14.160546 -1.205792 34.707366 6.063492 6.817716 44.786955 10.215588 9.563176 -14.100592 12.217077 -18.613189 5.334509 10.571869 -13.980645 
-0.007533 -1.349996 0.991752 -171.229118 1.004399 91.242355 7.433653 3.093328 -1.870862 -5.754951 -0.249157 9.794067 3.213073 12.138834 -15.967473 0.000000 -0.000000 0.000000 -7.030664 -1.445547 -5.258866 5.030168 2.314017 8.622255 2.997019 -0.131804 -8.897348 0.000000 -0.000000 0.000000 2.512251 0.986340 -3.830466 1.832179 -2.177174 11.656679 -2.062266 0.645406 -4.750551 -0.353980 -1.138223 2.959762 -0.934857 -3.521844 27.981888 -35.829160 -0.509263 4.178667 -51.598535 -7.716898 16.923861 6.073284 -20.407739 3.879791 -3.117353 -12.067193 0.731252 34.390579 5.932504 6.490029 44.723800 10.178720 9.407724 -14.195388 11.860952 -19.808041 6.384505 10.476334 -13.256083 
-0.020430 -1.354413 0.991781 -171.615176 1.517917 91.487629 6.292157 3.562344 -0.357322 -4.699089 -0.056538 5.873867 4.082652 12.578246 -15.089804 0.000000 -0.000000 0.000000 -6.950164 -1.473053 -5.996656 4.262485 2.384507 8.827772 3.763504 -0.100718 -8.169298 0.000000 -0.000000 0.000000 2.244104 0.427306 -3.628276 1.956104 -2.679559 11.056323 -2.057213 0.405787 -5.035294 -0.375672 -0.988930 3.457180 -0.758499 -2.773306 28.136876 -35.438400 -0.042069 3.833410 -51.765303 -7.260854 17.657339 4.861402 -20.999953 3.670212 -1.815956 -12.307425 1.004014 34.458928 5.306280 6.066377 44.625372 10.344796 9.903410 -14.304376 12.055606 -20.306108 6.342447 10.709486 -12.589266 
-0.024959 -1.356223 0.991987 -171.791157 1.646739 91.546586 5.920772 3.681700 0.135112 -4.411240 -0.132483 4.665264 4.316038 12.709062 -14.640182 0.000000 -0.000000 0.000000 -6.939892 -1.515887 -6.328596 3.957607 2.452827 8.973844 4.031998 -0.135414 -7.869166 0.000000 -0.000000 0.000000 2.142540 0.318628 -3.698047 1.937877 -2.812408 11.161792 -2.103414 0.383399 -5.129433 -0.470780 -0.991471 3.620595 -0.622990 -2.566303 28.092540 -35.324890 -0.132456 3.714645 -51.823368 -7.110862 18.291118 4.723061 -20.891913 4.695193 -1.454136 -12.420064 2.382684 34.506640 5.160143 5.931987 44.739657 10.351578 9.919517 -14.396689 12.345348 -20.446526 6.270553 10.835589 -12.641199 
-0.034283 -1.359890 0.992372 -172.481925 1.796990 91.578437 5.156883 3.828084 1.404422 -3.930786 -0.156952 1.885429 4.684549 12.805108 -13.870051 0.000000 -0.000000 0.000000 -7.115943 -1.445084 -7.112743 3.458536 2.517110 9.554649 4.480042 -0.081213 -7.425089 0.000000 -0.000000 0.000000 1.907871 0.200973 -3.900238 1.874112 -2.772173 11.448921 -2.165649 0.339477 -5.107644 -0.813964 -0.675667 3.933211 -0.535032 -2.374333 27.920282 -35.015094 -0.514664 3.705533 -51.711935 -7.158882 18.575329 4.461783 -21.251096 4.323956 -1.922286 -12.543501 2.415638 34.465863 4.964013 6.035079 45.133043 10.314271 9.934953 -14.570020 13.338202 -21.292932 6.153566 11.022267 -13.191465 
-0.042177 -1.365142 0.992314 -173.658446 2.036756 91.930868 4.734544 4.314509 1.798454 -3.911674 0.139103 0.211434 4.671885 13.110538 -13.351024 0.000000 -0.000000 0.000000 -7.196805 -0.962712 -8.770166 3.112244 2.553587 10.645377 4.916736 0.025760 -7.172689 0.000000 -0.000000 0.000000 1.653721 0.262536 -3.843530 1.872898 -2.337079 11.135705 -2.251159 0.320396 -4.990255 -1.111977 -0.361048 3.939368 -0.608590 -2.060460 28.050312 -34.339696 -0.697069 3.447316 -51.758881 -7.296153 19.196806 4.023554 -21.426435 4.592883 -2.594913 -12.275679 2.317844 34.429127 4.681680 6.015581 45.721627 10.280507 10.239852 -14.395510 14.279159 -21.973275 6.081304 11.149138 -14.039617 
-0.051130 -1.371858 0.992177 -175.144285 2.219345 92.176047 3.953512 4.752466 2.220484 -3.601394 0.326108 -1.716153 5.575017 13.321920 -13.033667 0.000000 -0.000000 0.000000 -7.510043 -0.304713 -10.720893 2.981084 2.761681 12.113836 5.554386 0.122343 -6.753903 0.000000 -0.000000 0.000000 1.588861 0.102182 -3.307458 1.758187 -1.787354 10.852657 -2.407866 0.606558 -5.180341 -1.572036 0.023828 3.855518 -0.615463 -1.520671 28.265987 -34.052896 -0.798233 2.812496 -51.671135 -7.685114 19.747901 4.077062 -20.851289 4.268723 -2.744432 -13.041262 2.237724 34.462576 4.572200 6.137715 46.166685 10.355114 10.713485 -14.102137 15.404117 -22.754602 5.576211 11.508772 -14.602972 
-0.059361 -1.376592 0.991992 -175.797908 2.501375 92.185549 3.478746 5.055875 2.438995 -3.443326 0.230006 -2.615358 5.592916 14.141706 -12.430160 0.000000 -0.000000 0.000000 -7.686113 -0.535144 -11.883873 3.050275 2.989724 13.249317 5.667042 0.040163 -6.694230 0.000000 -0.000000 0.000000 1.435401 0.067158 -3.077912 1.758666 -1.953223 11.161292 -2.516232 0.550843 -5.484485 -1.886139 0.369850 4.050085 -0.580543 -0.995973 28.088387 -33.827947 -0.755996 2.352985 -51.261325 -7.677121 19.983297 4.215274 -21.375294 3.517313 -2.795684 -13.000976 2.249711 34.713657 4.418267 6.067551 46.427245 10.308080 11.108499 -13.930434 16.790833 -23.030670 5.782547 11.779895 -14.495928 
-0.066432 -1.382008 0.992051 -176.768114 2.893003 91.933937 3.144644 5.453557 2.927469 -3.073669 0.287715 -3.594745 5.804705 14.400357 -12.134694 0.000000 -0.000000 0.000000 -7.667382 -0.450054 -13.207928 3.094999 2.910041 15.156805 5.561984 -0.054109 -7.473435 0.000000 -0.000000 0.000000 1.314141 -0.091068 -2.247856 1.794459 -1.769239 11.058932 -2.468584 0.475563 -5.527912 -2.052827 1.118343 3.817107 -0.652111 -0.491447 28.032606 -33.655784 -0.761254 2.008920 -50.894259 -7.670449 19.753242 4.583407 -22.064736 2.779412 -2.741292 -12.836699 1.738047 35.061786 4.493739 6.001464 46.528542 10.418975 11.472607 -13.955974 18.084430 -23.103569 6.138813 12.010758 -14.455523 
-0.071812 -1.386090 0.992567 -177.469363 3.292000 91.779308 3.060814 5.697450 3.214382 -2.888286 0.510242 -4.255445 5.870824 14.439948 -12.008001 0.000000 -0.000000 0.000000 -7.541856 -0.468160 -14.201228 3.364035 2.608434 16.690346 5.530811 -0.395428 -8.797622 0.000000 -0.000000 0.000000 1.033303 -0.381101 -1.974303 1.900382 -1.858656 11.108280 -2.336441 0.411653 -5.412864 -2.014100 1.846240 3.785373 -0.934327 -0.250101 27.778472 -33.361048 -0.750642 1.604236 -50.513264 -7.603638 19.490068 4.751078 -22.265577 2.239724 -2.660451 -12.243084 1.520392 35.547962 4.460727 5.867842 46.692192 10.573757 11.713547 -14.255557 19.293012 -23.046695 6.413127 11.896502 -14.278158 
-0.075024 -1.386234 0.993284 -178.378236 3.664231 91.723973 3.208244 6.283191 3.699062 -2.941978 0.639578 -4.871553 5.934618 14.500966 -12.044802 0.000000 -0.000000 0.000000 -7.104030 -0.780013 -14.843028 3.360472 2.148770 18.021348 5.123565 -0.902729 -10.010688 0.000000 -0.000000 0.000000 0.506364 -0.482620 -3.287624 2.142818 -2.055570 12.472567 -2.211033 0.309674 -5.514318 -1.814884 2.706612 4.280122 -1.061715 -0.093222 27.399279 -33.063855 -0.939507 1.498956 -50.053733 -7.165763 19.376378 5.183550 -22.214505 1.498523 -2.896395 -11.376965 2.578763 35.953256 4.575149 6.170793 47.018842 10.729372 11.661786 -14.458363 20.057670 -23.154255 7.180313 11.883512 -13.954555 
-0.078361 -1.388363 0.994217 -179.006261 3.948927 91.446607 3.164393 6.402454 3.891149 -2.805126 0.643801 -4.859870 6.024998 14.935373 -12.194904 0.000000 -0.000000 0.000000 -6.834907 -0.814722 -15.142615 3.105977 1.190391 19.170362 4.829373 -1.908082 -11.025481 0.000000 -0.000000 0.000000 0.417319 -0.752422 -3.093109 2.095693 -2.034230 12.261524 -2.184205 0.257647 -5.303987 -1.590367 3.168055 4.253052 -1.114126 0.003631 27.348892 -32.742575 -0.733481 1.432555 -49.541158 -7.153750 19.120452 5.219405 -22.030689 1.970184 -3.151063 -11.564393 2.813795 36.022682 4.576211 5.998829 47.670663 10.595242 11.790841 -14.639287 20.593406 -22.897210 6.985568 11.905332 -14.323909 
-0.080725 -1.390015 0.994843 -179.409000 4.166643 91.295090 3.146774 6.446761 3.738178 -2.677443 0.773233 -4.500111 5.939083 15.116953 -12.355915 0.000000 -0.000000 0.000000 -6.653493 -1.045225 -15.334874 2.902666 0.111258 20.344217 4.433757 -2.784242 -11.757211 0.000000 -0.000000 0.000000 0.317490 -0.932165 -2.966270 2.060398 -2.071326 11.951613 -2.154629 0.206868 -5.136741 -1.346785 3.396445 3.994253 -1.208822 0.021607 27.296929 -32.459487 -0.512727 1.218251 -48.936811 -7.277166 18.902528 4.976305 -21.292395 2.344513 -3.510768 -11.113694 2.949699 36.083855 4.531364 5.820381 47.985626 10.318608 12.048904 -14.538904 20.947300 -22.743206 6.986016 12.040965 -14.793882 
